<mxfile host="app.diagrams.net" agent="Mozilla/5.0 (Windows NT 10.0; Win64; x64) AppleWebKit/537.36 (KHTML, like Gecko) Chrome/129.0.0.0 Safari/537.36" version="24.7.17">
  <diagram name="Page-1" id="52a04d89-c75d-2922-d76d-85b35f80e030">
    <mxGraphModel dx="2598" dy="1315" grid="1" gridSize="10" guides="1" tooltips="1" connect="1" arrows="1" fold="1" page="1" pageScale="1" pageWidth="1100" pageHeight="850" background="none" math="0" shadow="0">
      <root>
        <mxCell id="0" />
        <mxCell id="1" parent="0" />
        <mxCell id="_Us3okKPnGzRXpjv-Bfy-1" value="" style="edgeStyle=orthogonalEdgeStyle;rounded=0;orthogonalLoop=1;jettySize=auto;html=1;fontFamily=Helvetica;" edge="1" parent="1" source="_Us3okKPnGzRXpjv-Bfy-2" target="_Us3okKPnGzRXpjv-Bfy-15">
          <mxGeometry relative="1" as="geometry" />
        </mxCell>
        <mxCell id="_Us3okKPnGzRXpjv-Bfy-2" value="엑셀 생성 다운로드 요청" style="rounded=1;whiteSpace=wrap;html=1;arcSize=50;fontFamily=Helvetica;" vertex="1" parent="1">
          <mxGeometry x="40" y="40" width="150" height="90" as="geometry" />
        </mxCell>
        <mxCell id="_Us3okKPnGzRXpjv-Bfy-45" value="" style="edgeStyle=orthogonalEdgeStyle;rounded=0;orthogonalLoop=1;jettySize=auto;html=1;" edge="1" parent="1" source="_Us3okKPnGzRXpjv-Bfy-15" target="_Us3okKPnGzRXpjv-Bfy-44">
          <mxGeometry relative="1" as="geometry" />
        </mxCell>
        <mxCell id="_Us3okKPnGzRXpjv-Bfy-15" value="s3 링크 생성" style="whiteSpace=wrap;html=1;rounded=1;strokeColor=default;align=center;verticalAlign=middle;fontFamily=Helvetica;fontSize=12;fontColor=default;fillColor=default;arcSize=0;" vertex="1" parent="1">
          <mxGeometry x="270" y="40" width="150" height="90" as="geometry" />
        </mxCell>
        <mxCell id="_Us3okKPnGzRXpjv-Bfy-16" value="아니요" style="text;html=1;align=center;verticalAlign=middle;resizable=0;points=[];autosize=1;strokeColor=none;fillColor=none;fontFamily=Helvetica;" vertex="1" parent="1">
          <mxGeometry x="1111" y="130" width="60" height="30" as="geometry" />
        </mxCell>
        <mxCell id="_Us3okKPnGzRXpjv-Bfy-22" value="네" style="text;html=1;align=center;verticalAlign=middle;resizable=0;points=[];autosize=1;strokeColor=none;fillColor=none;fontFamily=Helvetica;" vertex="1" parent="1">
          <mxGeometry x="1203.57" y="50" width="40" height="30" as="geometry" />
        </mxCell>
        <mxCell id="_Us3okKPnGzRXpjv-Bfy-47" value="" style="edgeStyle=orthogonalEdgeStyle;rounded=0;orthogonalLoop=1;jettySize=auto;html=1;" edge="1" parent="1" source="_Us3okKPnGzRXpjv-Bfy-44" target="_Us3okKPnGzRXpjv-Bfy-46">
          <mxGeometry relative="1" as="geometry" />
        </mxCell>
        <mxCell id="_Us3okKPnGzRXpjv-Bfy-44" value="FileStatus 저장&lt;div&gt;(fileName = s3 링크,&lt;/div&gt;&lt;div&gt;status = IN_PROFRESS)&amp;nbsp;&lt;/div&gt;" style="whiteSpace=wrap;html=1;rounded=1;strokeColor=default;align=center;verticalAlign=middle;fontFamily=Helvetica;fontSize=12;fontColor=default;fillColor=default;arcSize=0;" vertex="1" parent="1">
          <mxGeometry x="500" y="40" width="150" height="90" as="geometry" />
        </mxCell>
        <mxCell id="_Us3okKPnGzRXpjv-Bfy-49" value="" style="edgeStyle=orthogonalEdgeStyle;rounded=0;orthogonalLoop=1;jettySize=auto;html=1;" edge="1" parent="1" source="_Us3okKPnGzRXpjv-Bfy-46">
          <mxGeometry relative="1" as="geometry">
            <mxPoint x="995" y="85" as="targetPoint" />
          </mxGeometry>
        </mxCell>
        <mxCell id="_Us3okKPnGzRXpjv-Bfy-46" value="엑셀 생성" style="whiteSpace=wrap;html=1;rounded=1;strokeColor=default;align=center;verticalAlign=middle;fontFamily=Helvetica;fontSize=12;fontColor=default;fillColor=default;arcSize=0;" vertex="1" parent="1">
          <mxGeometry x="730" y="40" width="150" height="90" as="geometry" />
        </mxCell>
        <mxCell id="_Us3okKPnGzRXpjv-Bfy-52" value="" style="edgeStyle=orthogonalEdgeStyle;rounded=0;orthogonalLoop=1;jettySize=auto;html=1;entryX=0;entryY=0.5;entryDx=0;entryDy=0;" edge="1" parent="1" source="_Us3okKPnGzRXpjv-Bfy-50" target="_Us3okKPnGzRXpjv-Bfy-57">
          <mxGeometry relative="1" as="geometry">
            <mxPoint x="1325" y="85" as="targetPoint" />
          </mxGeometry>
        </mxCell>
        <mxCell id="_Us3okKPnGzRXpjv-Bfy-55" value="" style="edgeStyle=orthogonalEdgeStyle;rounded=0;orthogonalLoop=1;jettySize=auto;html=1;" edge="1" parent="1" source="_Us3okKPnGzRXpjv-Bfy-50" target="_Us3okKPnGzRXpjv-Bfy-56">
          <mxGeometry relative="1" as="geometry">
            <mxPoint x="1095" y="225" as="targetPoint" />
          </mxGeometry>
        </mxCell>
        <mxCell id="_Us3okKPnGzRXpjv-Bfy-50" value="엑셀 생성을 성공했는가?" style="rhombus;whiteSpace=wrap;html=1;rounded=1;arcSize=0;fontFamily=Helvetica;" vertex="1" parent="1">
          <mxGeometry x="990" y="40" width="210" height="90" as="geometry" />
        </mxCell>
        <mxCell id="_Us3okKPnGzRXpjv-Bfy-56" value="FileStatus 상태로 FAILED로 업데이트" style="whiteSpace=wrap;html=1;rounded=1;strokeColor=default;align=center;verticalAlign=middle;fontFamily=Helvetica;fontSize=12;fontColor=default;fillColor=default;arcSize=50;" vertex="1" parent="1">
          <mxGeometry x="1021.0000000000002" y="226" width="150" height="90" as="geometry" />
        </mxCell>
        <mxCell id="_Us3okKPnGzRXpjv-Bfy-61" value="" style="edgeStyle=orthogonalEdgeStyle;rounded=0;orthogonalLoop=1;jettySize=auto;html=1;fontFamily=Helvetica;fontSize=12;fontColor=default;entryX=0.068;entryY=0.505;entryDx=0;entryDy=0;entryPerimeter=0;" edge="1" parent="1" source="_Us3okKPnGzRXpjv-Bfy-57" target="_Us3okKPnGzRXpjv-Bfy-59">
          <mxGeometry relative="1" as="geometry">
            <mxPoint x="1589" y="85" as="targetPoint" />
          </mxGeometry>
        </mxCell>
        <mxCell id="_Us3okKPnGzRXpjv-Bfy-57" value="생성한 엑셀 s3에 저장" style="whiteSpace=wrap;html=1;rounded=1;strokeColor=default;align=center;verticalAlign=middle;fontFamily=Helvetica;fontSize=12;fontColor=default;fillColor=default;arcSize=0;" vertex="1" parent="1">
          <mxGeometry x="1324.0000000000002" y="40" width="150" height="90" as="geometry" />
        </mxCell>
        <mxCell id="_Us3okKPnGzRXpjv-Bfy-65" value="" style="edgeStyle=orthogonalEdgeStyle;rounded=0;orthogonalLoop=1;jettySize=auto;html=1;fontFamily=Helvetica;fontSize=12;fontColor=default;entryX=1;entryY=0.5;entryDx=0;entryDy=0;" edge="1" parent="1" source="_Us3okKPnGzRXpjv-Bfy-59" target="_Us3okKPnGzRXpjv-Bfy-56">
          <mxGeometry relative="1" as="geometry">
            <mxPoint x="1691" y="255" as="targetPoint" />
            <Array as="points">
              <mxPoint x="1691" y="271" />
            </Array>
          </mxGeometry>
        </mxCell>
        <mxCell id="_Us3okKPnGzRXpjv-Bfy-67" value="" style="edgeStyle=orthogonalEdgeStyle;rounded=0;orthogonalLoop=1;jettySize=auto;html=1;fontFamily=Helvetica;fontSize=12;fontColor=default;" edge="1" parent="1" source="_Us3okKPnGzRXpjv-Bfy-59" target="_Us3okKPnGzRXpjv-Bfy-68">
          <mxGeometry relative="1" as="geometry" />
        </mxCell>
        <mxCell id="_Us3okKPnGzRXpjv-Bfy-59" value="엑셀 저장을 성공했는가?" style="rhombus;whiteSpace=wrap;html=1;rounded=1;arcSize=0;fontFamily=Helvetica;" vertex="1" parent="1">
          <mxGeometry x="1586" y="40" width="210" height="90" as="geometry" />
        </mxCell>
        <mxCell id="_Us3okKPnGzRXpjv-Bfy-62" value="아니요" style="text;html=1;align=center;verticalAlign=middle;resizable=0;points=[];autosize=1;strokeColor=none;fillColor=none;fontFamily=Helvetica;" vertex="1" parent="1">
          <mxGeometry x="1720" y="130" width="60" height="30" as="geometry" />
        </mxCell>
        <mxCell id="_Us3okKPnGzRXpjv-Bfy-63" value="네" style="text;html=1;align=center;verticalAlign=middle;resizable=0;points=[];autosize=1;strokeColor=none;fillColor=none;fontFamily=Helvetica;" vertex="1" parent="1">
          <mxGeometry x="1810" y="40" width="40" height="30" as="geometry" />
        </mxCell>
        <mxCell id="_Us3okKPnGzRXpjv-Bfy-68" value="FileStatus 상태로 COMPLETED로 업데이트" style="whiteSpace=wrap;html=1;rounded=1;strokeColor=default;align=center;verticalAlign=middle;fontFamily=Helvetica;fontSize=12;fontColor=default;fillColor=default;arcSize=50;" vertex="1" parent="1">
          <mxGeometry x="1960.0000000000002" y="40" width="150" height="90" as="geometry" />
        </mxCell>
      </root>
    </mxGraphModel>
  </diagram>
</mxfile>
